<?xml version="1.0" encoding="UTF-8" standalone="no"?>
<!-- Created with Inkscape (http://www.inkscape.org/) -->

<svg
   xmlns:dc="http://purl.org/dc/elements/1.1/"
   xmlns:cc="http://creativecommons.org/ns#"
   xmlns:rdf="http://www.w3.org/1999/02/22-rdf-syntax-ns#"
   xmlns:svg="http://www.w3.org/2000/svg"
   xmlns="http://www.w3.org/2000/svg"
   xmlns:sodipodi="http://sodipodi.sourceforge.net/DTD/sodipodi-0.dtd"
   xmlns:inkscape="http://www.inkscape.org/namespaces/inkscape"
   width="100mm"
   height="100mm"
   viewBox="0 0 100 100"
   version="1.1"
   id="svg8"
   inkscape:version="0.92.5 (2060ec1f9f, 2020-04-08)"
   sodipodi:docname="logo.svg"
   inkscape:export-filename="/home/chris/Documents/logo/new-logo.png"
   inkscape:export-xdpi="96"
   inkscape:export-ydpi="96">
  <defs
     id="defs2" />
  <sodipodi:namedview
     id="base"
     pagecolor="#ffffff"
     bordercolor="#666666"
     borderopacity="1.0"
     inkscape:pageopacity="0.0"
     inkscape:pageshadow="2"
     inkscape:zoom="1.7154572"
     inkscape:cx="101.83595"
     inkscape:cy="161.51974"
     inkscape:document-units="mm"
     inkscape:current-layer="layer1"
     showgrid="false"
     inkscape:window-width="1920"
     inkscape:window-height="1136"
     inkscape:window-x="1920"
     inkscape:window-y="27"
     inkscape:window-maximized="1"
     inkscape:snap-text-baseline="false" />
  <metadata
     id="metadata5">
    <rdf:RDF>
      <cc:Work
         rdf:about="">
        <dc:format>image/svg+xml</dc:format>
        <dc:type
           rdf:resource="http://purl.org/dc/dcmitype/StillImage" />
        <dc:title></dc:title>
      </cc:Work>
    </rdf:RDF>
  </metadata>
  <g
     inkscape:label="Layer 1"
     inkscape:groupmode="layer"
     id="layer1"
     transform="translate(0,-197)">
    <ellipse
       style="opacity:1;fill:#000000;fill-opacity:1;stroke-width:0.40263012"
       id="path22"
       cx="50"
       cy="247"
       r="50" />
    <path
       style="opacity:1;fill:#000007;fill-opacity:1;stroke-width:1.1574198"
       d="M 188.97656 0 A 188.97638 188.97638 0 0 0 96.208984 24.601562 C 119.48393 29.11489 139.18845 39.965793 155.3125 57.171875 C 168.32291 70.961067 178.08073 90.765923 184.58594 116.58398 L 127.4043 131.98633 C 124.02159 115.26327 116.93145 102.06068 106.13281 92.378906 C 95.464276 82.697133 82.453847 77.855469 67.101562 77.855469 C 51.891506 77.855469 38.723268 82.272771 27.595703 91.101562 A 188.97638 188.97638 0 0 0 0 188.97656 A 188.97638 188.97638 0 0 0 27.722656 287.18359 C 38.519165 295.78867 51.252533 300.09766 65.929688 300.09766 C 81.281972 300.09766 94.488026 294.59576 105.54688 283.59375 C 116.60572 272.59174 124.54162 255.28172 129.35547 231.66406 L 185.36523 251.6875 C 176.77836 286.89395 162.46767 313.07904 142.43164 330.24219 C 129.13744 341.60665 113.43098 349.17062 95.320312 352.94531 A 188.97638 188.97638 0 0 0 188.97656 377.95312 A 188.97638 188.97638 0 0 0 299.33789 342.08789 L 299.33789 82.257812 L 214.44336 82.257812 L 214.44336 27.6875 L 287.00195 27.6875 A 188.97638 188.97638 0 0 0 188.97656 0 z M 357.10352 102.75391 L 357.10352 274.8457 A 188.97638 188.97638 0 0 0 377.95312 188.97656 A 188.97638 188.97638 0 0 0 357.10352 102.75391 z "
       transform="matrix(0.26458333,0,0,0.26458333,0,197)"
       id="path815" />
  </g>
</svg>
